<svg font-family="sans-serif" viewBox="0 0 753 387" xmlns:xlink="http://www.w3.org/1999/xlink" text-decoration="none" font-style="normal" width="753px" xmlns="http://www.w3.org/2000/svg" font-size="15" version="1.1" font-weight="normal" height="387px"><title>Average High and Low Temperature in August</title><defs><clipPath id="plot-sample-bounds-0"><rect y="0" x="78.3" height="365" width="596.4"></rect></clipPath><clipPath id="plot-sample-bounds-scaled-0"><rect y="0" x="782.8" height="3650" width="5964.5"></rect></clipPath></defs><g transform="scale(0.1)"><g clip-path="url(#plot-sample-bounds-scaled-0)"><path stroke-width="20" stroke="#592f93" d="M783,2296l65,10l66,4l65,7l66,3l65,7l66,10l66,14l65,10l66,7l65,11l66,14l65,10l66,7l65,3l66,4l65,7l66,10l66,10l65,11l66,10l65,7l66,3l65,4l66,3l65,4l66,7l65,3l66,0l66,3l65,4l66,7l65,3l66,4l65,3l66,7l65,7l66,3l65,7l66,7l66,7l65,7l66,7l65,3l66,4l65,3l66,7l65,7l66,4l65,6l66,4l65,10l66,7l66,14l65,10l66,7l65,11l66,10l65,10l66,7l65,11l66,10l65,7l66,10l66,10l65,11l66,10l65,11l66,10l65,14l66,17l65,17l66,14l65,17l66,17l66,18l65,24l66,24l65,21l66,24l65,21l66,20l65,24l66,25l65,24l66,27l66,28l65,28l66,31l65,31l66,34l65,35" fill="none" stroke-opacity="1.0"></path></g><g clip-path="url(#plot-sample-bounds-scaled-0)"><path stroke-width="20" stroke="#592f93" d="M783,350l65,35l66,27l65,28l66,34l65,35l66,27l66,35l65,34l66,28l65,21l66,34l65,28l66,27l65,21l66,21l65,27l66,21l66,21l65,27l66,21l65,21l66,20l65,7l66,14l65,14l66,14l65,7l66,7l66,6l65,7l66,14l65,7l66,0l65,14l66,0l65,7l66,7l65,0l66,7l66,6l65,0l66,0l65,-6l66,0l65,-7l66,0l65,0l66,-7l65,-7l66,0l65,0l66,-7l66,7l65,0l66,0l65,0l66,7l65,7l66,-7l65,0l66,-7l65,0l66,-7l66,0l65,0l66,-7l65,0l66,-7l65,0l66,-7l65,0l66,-7l65,-7l66,-6l66,0l65,0l66,-7l65,0l66,0l65,0l66,0l65,0l66,0l65,0l66,-7l66,0l65,0l66,0l65,0l66,7l65,7" fill="none" stroke-opacity="1.0"></path></g><path fill-opacity="0.039" stroke="none" d="M783,2296l65,10l66,4l65,7l66,3l65,7l66,10l66,14l65,10l66,7l65,11l66,14l65,10l66,7l65,3l66,4l65,7l66,10l66,10l65,11l66,10l65,7l66,3l65,4l66,3l65,4l66,7l65,3l66,0l66,3l65,4l66,7l65,3l66,4l65,3l66,7l65,7l66,3l65,7l66,7l66,7l65,7l66,7l65,3l66,4l65,3l66,7l65,7l66,4l65,6l66,4l65,10l66,7l66,14l65,10l66,7l65,11l66,10l65,10l66,7l65,11l66,10l65,7l66,10l66,10l65,11l66,10l65,11l66,10l65,14l66,17l65,17l66,14l65,17l66,17l66,18l65,24l66,24l65,21l66,24l65,21l66,20l65,24l66,25l65,24l66,27l66,28l65,28l66,31l65,31l66,34l65,35l0,-2315l-65,-7l-66,-7l-65,0l-66,0l-65,0l-66,0l-66,7l-65,0l-66,0l-65,0l-66,0l-65,0l-66,0l-65,0l-66,7l-65,0l-66,0l-66,6l-65,7l-66,7l-65,0l-66,7l-65,0l-66,7l-65,0l-66,7l-65,0l-66,0l-66,7l-65,0l-66,7l-65,0l-66,7l-65,-7l-66,-7l-65,0l-66,0l-65,0l-66,-7l-66,7l-65,0l-66,0l-65,7l-66,7l-65,0l-66,0l-65,7l-66,0l-65,6l-66,0l-65,0l-66,-6l-66,-7l-65,0l-66,-7l-65,-7l-66,0l-65,-14l-66,0l-65,-7l-66,-14l-65,-7l-66,-6l-66,-7l-65,-7l-66,-14l-65,-14l-66,-14l-65,-7l-66,-20l-65,-21l-66,-21l-65,-27l-66,-21l-66,-21l-65,-27l-66,-21l-65,-21l-66,-27l-65,-28l-66,-34l-65,-21l-66,-28l-65,-34l-66,-35l-66,-27l-65,-35l-66,-34l-65,-28l-66,-27l-65,-35Z" fill="#592f93"></path><g clip-path="url(#plot-sample-bounds-scaled-0)"><path stroke-width="20" stroke="#03a45e" d="M783,2355l65,6l66,4l65,0l66,3l65,7l66,7l66,7l65,10l66,4l65,10l66,11l65,6l66,4l65,3l66,4l65,3l66,11l66,7l65,10l66,7l65,7l66,3l65,0l66,4l65,3l66,7l65,0l66,3l66,4l65,3l66,7l65,0l66,4l65,3l66,7l65,3l66,7l65,7l66,7l66,7l65,7l66,3l65,4l66,3l65,7l66,7l65,7l66,3l65,7l66,7l65,7l66,7l66,10l65,11l66,10l65,10l66,7l65,11l66,10l65,10l66,11l65,7l66,13l66,14l65,11l66,13l65,11l66,10l65,14l66,17l65,17l66,18l65,17l66,21l66,20l65,24l66,25l65,27l66,24l65,25l66,24l65,24l66,27l65,28l66,31l66,31l65,35l66,34l65,35l66,38l65,41" fill="none" stroke-opacity="1.0"></path></g><g clip-path="url(#plot-sample-bounds-scaled-0)"><path stroke-width="20" stroke="#03a45e" d="M783,502l65,27l66,28l65,28l66,27l65,28l66,27l66,28l65,35l66,20l65,21l66,28l65,27l66,21l65,21l66,20l65,21l66,21l66,20l65,21l66,21l65,20l66,14l65,14l66,14l65,7l66,14l65,6l66,7l66,7l65,14l66,7l65,14l66,0l65,14l66,0l65,6l66,7l65,7l66,7l66,7l65,7l66,0l65,0l66,0l65,-7l66,7l65,0l66,-7l65,0l66,0l65,0l66,-7l66,7l65,7l66,0l65,7l66,7l65,7l66,0l65,-7l66,0l65,0l66,-7l66,7l65,-7l66,0l65,0l66,-7l65,7l66,-7l65,0l66,0l65,0l66,-7l66,0l65,7l66,-7l65,0l66,7l65,0l66,0l65,7l66,0l65,0l66,0l66,0l65,0l66,0l65,0l66,14l65,7" fill="none" stroke-opacity="1.0"></path></g><path fill-opacity="0.039" stroke="none" d="M783,2355l65,6l66,4l65,0l66,3l65,7l66,7l66,7l65,10l66,4l65,10l66,11l65,6l66,4l65,3l66,4l65,3l66,11l66,7l65,10l66,7l65,7l66,3l65,0l66,4l65,3l66,7l65,0l66,3l66,4l65,3l66,7l65,0l66,4l65,3l66,7l65,3l66,7l65,7l66,7l66,7l65,7l66,3l65,4l66,3l65,7l66,7l65,7l66,3l65,7l66,7l65,7l66,7l66,10l65,11l66,10l65,10l66,7l65,11l66,10l65,10l66,11l65,7l66,13l66,14l65,11l66,13l65,11l66,10l65,14l66,17l65,17l66,18l65,17l66,21l66,20l65,24l66,25l65,27l66,24l65,25l66,24l65,24l66,27l65,28l66,31l66,31l65,35l66,34l65,35l66,38l65,41l0,-2187l-65,-7l-66,-14l-65,0l-66,0l-65,0l-66,0l-66,0l-65,0l-66,0l-65,-7l-66,0l-65,0l-66,-7l-65,0l-66,7l-65,-7l-66,0l-66,7l-65,0l-66,0l-65,0l-66,7l-65,-7l-66,7l-65,0l-66,0l-65,7l-66,-7l-66,7l-65,0l-66,0l-65,7l-66,0l-65,-7l-66,-7l-65,-7l-66,0l-65,-7l-66,-7l-66,7l-65,0l-66,0l-65,0l-66,7l-65,0l-66,-7l-65,7l-66,0l-65,0l-66,0l-65,-7l-66,-7l-66,-7l-65,-7l-66,-7l-65,-6l-66,0l-65,-14l-66,0l-65,-14l-66,-7l-65,-14l-66,-7l-66,-7l-65,-6l-66,-14l-65,-7l-66,-14l-65,-14l-66,-14l-65,-20l-66,-21l-65,-21l-66,-20l-66,-21l-65,-21l-66,-20l-65,-21l-66,-21l-65,-27l-66,-28l-65,-21l-66,-20l-65,-35l-66,-28l-66,-27l-65,-28l-66,-27l-65,-28l-66,-28l-65,-27Z" fill="#03a45e"></path><g clip-path="url(#plot-sample-bounds-scaled-0)"><path stroke-width="20" stroke="#ee1c25" d="M783,2486l65,10l66,10l65,7l66,7l65,7l66,10l66,7l65,7l66,11l65,10l66,10l65,11l66,7l65,6l66,4l65,7l66,3l66,11l65,7l66,10l65,3l66,7l65,7l66,7l65,3l66,7l65,0l66,4l66,3l65,7l66,4l65,3l66,7l65,0l66,7l65,-4l66,0l65,4l66,3l66,0l65,4l66,0l65,0l66,0l65,0l66,3l65,4l66,3l65,4l66,3l65,0l66,3l66,0l65,-3l66,0l65,3l66,0l65,4l66,0l65,3l66,0l65,-3l66,3l66,0l65,4l66,0l65,3l66,4l65,0l66,0l65,3l66,0l65,7l66,0l66,10l65,7l66,0l65,4l66,3l65,4l66,3l65,4l66,3l65,3l66,4l66,3l65,0l66,4l65,7l66,3l65,7" fill="none" stroke-opacity="1.0"></path></g><g clip-path="url(#plot-sample-bounds-scaled-0)"><path stroke-width="20" stroke="#ee1c25" d="M783,819l65,14l66,7l65,14l66,14l65,13l66,14l66,14l65,7l66,14l65,20l66,14l65,14l66,7l65,14l66,7l65,13l66,14l66,7l65,7l66,14l65,7l66,7l65,6l66,7l65,0l66,14l65,7l66,7l66,7l65,7l66,7l65,0l66,7l65,6l66,0l65,0l66,0l65,0l66,0l66,7l65,0l66,0l65,0l66,0l65,0l66,7l65,0l66,0l65,7l66,0l65,7l66,0l66,0l65,0l66,0l65,7l66,0l65,7l66,0l65,7l66,0l65,0l66,0l66,0l65,0l66,7l65,0l66,0l65,7l66,6l65,0l66,7l65,0l66,7l66,14l65,7l66,14l65,7l66,7l65,6l66,14l65,7l66,7l65,7l66,7l66,7l65,14l66,6l65,7l66,7l65,14" fill="none" stroke-opacity="1.0"></path></g><path fill-opacity="0.039" stroke="none" d="M783,2486l65,10l66,10l65,7l66,7l65,7l66,10l66,7l65,7l66,11l65,10l66,10l65,11l66,7l65,6l66,4l65,7l66,3l66,11l65,7l66,10l65,3l66,7l65,7l66,7l65,3l66,7l65,0l66,4l66,3l65,7l66,4l65,3l66,7l65,0l66,7l65,-4l66,0l65,4l66,3l66,0l65,4l66,0l65,0l66,0l65,0l66,3l65,4l66,3l65,4l66,3l65,0l66,3l66,0l65,-3l66,0l65,3l66,0l65,4l66,0l65,3l66,0l65,-3l66,3l66,0l65,4l66,0l65,3l66,4l65,0l66,0l65,3l66,0l65,7l66,0l66,10l65,7l66,0l65,4l66,3l65,4l66,3l65,4l66,3l65,3l66,4l66,3l65,0l66,4l65,7l66,3l65,7l0,-1456l-65,-14l-66,-7l-65,-7l-66,-6l-65,-14l-66,-7l-66,-7l-65,-7l-66,-7l-65,-7l-66,-14l-65,-6l-66,-7l-65,-7l-66,-14l-65,-7l-66,-14l-66,-7l-65,0l-66,-7l-65,0l-66,-6l-65,-7l-66,0l-65,0l-66,-7l-65,0l-66,0l-66,0l-65,0l-66,0l-65,-7l-66,0l-65,-7l-66,0l-65,-7l-66,0l-65,0l-66,0l-66,0l-65,-7l-66,0l-65,-7l-66,0l-65,0l-66,-7l-65,0l-66,0l-65,0l-66,0l-65,0l-66,-7l-66,0l-65,0l-66,0l-65,0l-66,0l-65,-6l-66,-7l-65,0l-66,-7l-65,-7l-66,-7l-66,-7l-65,-7l-66,-14l-65,0l-66,-7l-65,-6l-66,-7l-65,-7l-66,-14l-65,-7l-66,-7l-66,-14l-65,-13l-66,-7l-65,-14l-66,-7l-65,-14l-66,-14l-65,-20l-66,-14l-65,-7l-66,-14l-66,-14l-65,-13l-66,-14l-65,-14l-66,-7l-65,-14Z" fill="#ee1c25"></path><g clip-path="url(#plot-sample-bounds-scaled-0)"><path stroke-width="20" stroke="#0465ff" d="M783,2707l65,3l66,3l65,7l66,4l65,3l66,7l66,7l65,3l66,7l65,4l66,3l65,4l66,7l65,3l66,4l65,3l66,0l66,0l65,-3l66,0l65,3l66,3l65,0l66,0l65,4l66,3l65,7l66,0l66,4l65,0l66,0l65,-4l66,4l65,0l66,3l65,4l66,3l65,3l66,7l66,4l65,3l66,0l65,4l66,0l65,3l66,4l65,3l66,0l65,7l66,7l65,0l66,3l66,4l65,3l66,4l65,7l66,3l65,3l66,0l65,4l66,7l65,7l66,7l66,3l65,4l66,3l65,3l66,4l65,3l66,0l65,0l66,4l65,3l66,0l66,0l65,0l66,4l65,0l66,3l65,4l66,0l65,0l66,0l65,3l66,0l66,0l65,0l66,-3l65,0l66,6l65,0" fill="none" stroke-opacity="1.0"></path></g><g clip-path="url(#plot-sample-bounds-scaled-0)"><path stroke-width="20" stroke="#0465ff" d="M783,1861l65,11l66,10l65,10l66,7l65,11l66,6l66,11l65,7l66,7l65,6l66,11l65,7l66,10l65,7l66,7l65,7l66,3l66,4l65,3l66,4l65,6l66,4l65,7l66,3l65,4l66,3l65,7l66,7l66,3l65,0l66,0l65,-3l66,0l65,0l66,0l65,0l66,0l65,3l66,0l66,4l65,-4l66,0l65,0l66,0l65,0l66,-3l65,-3l66,0l65,-4l66,-3l65,-4l66,-3l66,-4l65,-3l66,-4l65,-3l66,-4l65,-6l66,-11l65,-3l66,-4l65,-7l66,-3l66,-3l65,-4l66,-7l65,0l66,-7l65,-7l66,-7l65,-10l66,-7l65,-10l66,-14l66,-14l65,-20l66,-14l65,-14l66,-14l65,-10l66,-11l65,-17l66,-14l65,-17l66,-17l66,-17l65,-18l66,-20l65,-21l66,-17l65,-21" fill="none" stroke-opacity="1.0"></path></g><path fill-opacity="0.039" stroke="none" d="M783,2707l65,3l66,3l65,7l66,4l65,3l66,7l66,7l65,3l66,7l65,4l66,3l65,4l66,7l65,3l66,4l65,3l66,0l66,0l65,-3l66,0l65,3l66,3l65,0l66,0l65,4l66,3l65,7l66,0l66,4l65,0l66,0l65,-4l66,4l65,0l66,3l65,4l66,3l65,3l66,7l66,4l65,3l66,0l65,4l66,0l65,3l66,4l65,3l66,0l65,7l66,7l65,0l66,3l66,4l65,3l66,4l65,7l66,3l65,3l66,0l65,4l66,7l65,7l66,7l66,3l65,4l66,3l65,3l66,4l65,3l66,0l65,0l66,4l65,3l66,0l66,0l65,0l66,4l65,0l66,3l65,4l66,0l65,0l66,0l65,3l66,0l66,0l65,0l66,-3l65,0l66,6l65,0l0,-1321l-65,21l-66,17l-65,21l-66,20l-65,18l-66,17l-66,17l-65,17l-66,14l-65,17l-66,11l-65,10l-66,14l-65,14l-66,14l-65,20l-66,14l-66,14l-65,10l-66,7l-65,10l-66,7l-65,7l-66,7l-65,0l-66,7l-65,4l-66,3l-66,3l-65,7l-66,4l-65,3l-66,11l-65,6l-66,4l-65,3l-66,4l-65,3l-66,4l-66,3l-65,4l-66,3l-65,4l-66,0l-65,3l-66,3l-65,0l-66,0l-65,0l-66,0l-65,4l-66,-4l-66,0l-65,-3l-66,0l-65,0l-66,0l-65,0l-66,0l-65,3l-66,0l-65,0l-66,-3l-66,-7l-65,-7l-66,-3l-65,-4l-66,-3l-65,-7l-66,-4l-65,-6l-66,-4l-65,-3l-66,-4l-66,-3l-65,-7l-66,-7l-65,-7l-66,-10l-65,-7l-66,-11l-65,-6l-66,-7l-65,-7l-66,-11l-66,-6l-65,-11l-66,-7l-65,-10l-66,-10l-65,-11Z" fill="#0465ff"></path></g><g stroke-width="1" stroke="#000" fill="none" stroke-opacity="0.072"><line x2="94.7" y1="10" x1="94.7" y2="370" stroke-opacity="0.12"></line><line x2="140.5" y1="10" x1="140.5" y2="370" stroke-opacity="0.12"></line><line x2="186.4" y1="10" x1="186.4" y2="370" stroke-opacity="0.12"></line><line x2="232.3" y1="10" x1="232.3" y2="370" stroke-opacity="0.12"></line><line x2="278.2" y1="10" x1="278.2" y2="370" stroke-opacity="0.12"></line><line x2="324.1" y1="10" x1="324.1" y2="370" stroke-opacity="0.12"></line><line x2="369.9" y1="10" x1="369.9" y2="370" stroke-opacity="0.12"></line><line x2="415.8" y1="10" x1="415.8" y2="370" stroke-opacity="0.12"></line><line x2="461.7" y1="10" x1="461.7" y2="370" stroke-opacity="0.12"></line><line x2="507.6" y1="10" x1="507.6" y2="370" stroke-opacity="0.12"></line><line x2="553.5" y1="10" x1="553.5" y2="370" stroke-opacity="0.12"></line><line x2="599.3" y1="10" x1="599.3" y2="370" stroke-opacity="0.12"></line><line x2="645.2" y1="10" x1="645.2" y2="370" stroke-opacity="0.12"></line><line x2="681" y1="328.7" x1="72" y2="328.7"></line><line x2="681" y1="267.3" x1="72" y2="267.3"></line><line x2="681" y1="206" x1="72" y2="206"></line><line x2="681" y1="144.6" x1="72" y2="144.6"></line><line x2="681" y1="83.3" x1="72" y2="83.3"></line><line x2="681" y1="22" x1="72" y2="22"></line></g><g><text stroke="none" y="380.7" x="278.2">1</text></g><g><text stroke="none" y="380.7" x="324.1">8</text></g><g><text stroke="none" y="380.7" x="369.9">15</text></g><g><text stroke="none" y="380.7" x="415.8">22</text></g><g><text stroke="none" y="380.7" x="461.7">29</text></g><g><rect fill-opacity="0.004" y="10" x="278.2" height="355" width="6.6" fill="#fff"></rect><g><rect fill-opacity="0.750" stroke="none" y="366.5" x="228.2" height="20.5" width="303.2" fill="#fff"></rect><g stroke="none"><g opacity="0.4"><text stroke-width="4" stroke="#fff" y="380.7" x="278.2" stroke-linejoin="bevel" fill="#fff">1</text></g><text y="380.7" x="278.2">1</text></g></g></g><g><rect fill-opacity="0.004" y="10" x="284.7" height="355" width="6.6" fill="#fff"></rect><g><rect fill-opacity="0.750" stroke="none" y="366.5" x="228.2" height="20.5" width="303.2" fill="#fff"></rect><g stroke="none"><g opacity="0.4"><text stroke-width="4" stroke="#fff" y="380.7" x="284.7" stroke-linejoin="bevel" fill="#fff">2</text></g><text y="380.7" x="284.7">2</text></g></g></g><g><rect fill-opacity="0.004" y="10" x="291.3" height="355" width="6.6" fill="#fff"></rect><g><rect fill-opacity="0.750" stroke="none" y="366.5" x="228.2" height="20.5" width="303.2" fill="#fff"></rect><g stroke="none"><g opacity="0.4"><text stroke-width="4" stroke="#fff" y="380.7" x="291.3" stroke-linejoin="bevel" fill="#fff">3</text></g><text y="380.7" x="291.3">3</text></g></g></g><g><rect fill-opacity="0.004" y="10" x="297.8" height="355" width="6.6" fill="#fff"></rect><g><rect fill-opacity="0.750" stroke="none" y="366.5" x="228.2" height="20.5" width="303.2" fill="#fff"></rect><g stroke="none"><g opacity="0.4"><text stroke-width="4" stroke="#fff" y="380.7" x="297.8" stroke-linejoin="bevel" fill="#fff">4</text></g><text y="380.7" x="297.8">4</text></g></g></g><g><rect fill-opacity="0.004" y="10" x="304.4" height="355" width="6.6" fill="#fff"></rect><g><rect fill-opacity="0.750" stroke="none" y="366.5" x="228.2" height="20.5" width="303.2" fill="#fff"></rect><g stroke="none"><g opacity="0.4"><text stroke-width="4" stroke="#fff" y="380.7" x="304.4" stroke-linejoin="bevel" fill="#fff">5</text></g><text y="380.7" x="304.4">5</text></g></g></g><g><rect fill-opacity="0.004" y="10" x="311" height="355" width="6.6" fill="#fff"></rect><g><rect fill-opacity="0.750" stroke="none" y="366.5" x="228.2" height="20.5" width="303.2" fill="#fff"></rect><g stroke="none"><g opacity="0.4"><text stroke-width="4" stroke="#fff" y="380.7" x="311" stroke-linejoin="bevel" fill="#fff">6</text></g><text y="380.7" x="311">6</text></g></g></g><g><rect fill-opacity="0.004" y="10" x="317.5" height="355" width="6.6" fill="#fff"></rect><g><rect fill-opacity="0.750" stroke="none" y="366.5" x="228.2" height="20.5" width="303.2" fill="#fff"></rect><g stroke="none"><g opacity="0.4"><text stroke-width="4" stroke="#fff" y="380.7" x="317.5" stroke-linejoin="bevel" fill="#fff">7</text></g><text y="380.7" x="317.5">7</text></g></g></g><g><rect fill-opacity="0.004" y="10" x="324.1" height="355" width="6.6" fill="#fff"></rect><g><rect fill-opacity="0.750" stroke="none" y="366.5" x="228.2" height="20.5" width="303.2" fill="#fff"></rect><g stroke="none"><g opacity="0.4"><text stroke-width="4" stroke="#fff" y="380.7" x="324.1" stroke-linejoin="bevel" fill="#fff">8</text></g><text y="380.7" x="324.1">8</text></g></g></g><g><rect fill-opacity="0.004" y="10" x="330.6" height="355" width="6.6" fill="#fff"></rect><g><rect fill-opacity="0.750" stroke="none" y="366.5" x="228.2" height="20.5" width="303.2" fill="#fff"></rect><g stroke="none"><g opacity="0.4"><text stroke-width="4" stroke="#fff" y="380.7" x="330.6" stroke-linejoin="bevel" fill="#fff">9</text></g><text y="380.7" x="330.6">9</text></g></g></g><g><rect fill-opacity="0.004" y="10" x="337.2" height="355" width="6.6" fill="#fff"></rect><g><rect fill-opacity="0.750" stroke="none" y="366.5" x="228.2" height="20.5" width="303.2" fill="#fff"></rect><g stroke="none"><g opacity="0.4"><text stroke-width="4" stroke="#fff" y="380.7" x="337.2" stroke-linejoin="bevel" fill="#fff">10</text></g><text y="380.7" x="337.2">10</text></g></g></g><g><rect fill-opacity="0.004" y="10" x="343.7" height="355" width="6.6" fill="#fff"></rect><g><rect fill-opacity="0.750" stroke="none" y="366.5" x="228.2" height="20.5" width="303.2" fill="#fff"></rect><g stroke="none"><g opacity="0.4"><text stroke-width="4" stroke="#fff" y="380.7" x="343.7" stroke-linejoin="bevel" fill="#fff">11</text></g><text y="380.7" x="343.7">11</text></g></g></g><g><rect fill-opacity="0.004" y="10" x="350.3" height="355" width="6.6" fill="#fff"></rect><g><rect fill-opacity="0.750" stroke="none" y="366.5" x="228.2" height="20.5" width="303.2" fill="#fff"></rect><g stroke="none"><g opacity="0.4"><text stroke-width="4" stroke="#fff" y="380.7" x="350.3" stroke-linejoin="bevel" fill="#fff">12</text></g><text y="380.7" x="350.3">12</text></g></g></g><g><rect fill-opacity="0.004" y="10" x="356.8" height="355" width="6.6" fill="#fff"></rect><g><rect fill-opacity="0.750" stroke="none" y="366.5" x="228.2" height="20.5" width="303.2" fill="#fff"></rect><g stroke="none"><g opacity="0.4"><text stroke-width="4" stroke="#fff" y="380.7" x="356.8" stroke-linejoin="bevel" fill="#fff">13</text></g><text y="380.7" x="356.8">13</text></g></g></g><g><rect fill-opacity="0.004" y="10" x="363.4" height="355" width="6.6" fill="#fff"></rect><g><rect fill-opacity="0.750" stroke="none" y="366.5" x="228.2" height="20.5" width="303.2" fill="#fff"></rect><g stroke="none"><g opacity="0.4"><text stroke-width="4" stroke="#fff" y="380.7" x="363.4" stroke-linejoin="bevel" fill="#fff">14</text></g><text y="380.7" x="363.4">14</text></g></g></g><g><rect fill-opacity="0.004" y="10" x="369.9" height="355" width="6.6" fill="#fff"></rect><g><rect fill-opacity="0.750" stroke="none" y="366.5" x="228.2" height="20.5" width="303.2" fill="#fff"></rect><g stroke="none"><g opacity="0.4"><text stroke-width="4" stroke="#fff" y="380.7" x="369.9" stroke-linejoin="bevel" fill="#fff">15</text></g><text y="380.7" x="369.9">15</text></g></g></g><g><rect fill-opacity="0.004" y="10" x="376.5" height="355" width="6.6" fill="#fff"></rect><g><rect fill-opacity="0.750" stroke="none" y="366.5" x="228.2" height="20.5" width="303.2" fill="#fff"></rect><g stroke="none"><g opacity="0.4"><text stroke-width="4" stroke="#fff" y="380.7" x="376.5" stroke-linejoin="bevel" fill="#fff">16</text></g><text y="380.7" x="376.5">16</text></g></g></g><g><rect fill-opacity="0.004" y="10" x="383.1" height="355" width="6.6" fill="#fff"></rect><g><rect fill-opacity="0.750" stroke="none" y="366.5" x="228.2" height="20.5" width="303.2" fill="#fff"></rect><g stroke="none"><g opacity="0.4"><text stroke-width="4" stroke="#fff" y="380.7" x="383.1" stroke-linejoin="bevel" fill="#fff">17</text></g><text y="380.7" x="383.1">17</text></g></g></g><g><rect fill-opacity="0.004" y="10" x="389.6" height="355" width="6.6" fill="#fff"></rect><g><rect fill-opacity="0.750" stroke="none" y="366.5" x="228.2" height="20.5" width="303.2" fill="#fff"></rect><g stroke="none"><g opacity="0.4"><text stroke-width="4" stroke="#fff" y="380.7" x="389.6" stroke-linejoin="bevel" fill="#fff">18</text></g><text y="380.7" x="389.6">18</text></g></g></g><g><rect fill-opacity="0.004" y="10" x="396.2" height="355" width="6.6" fill="#fff"></rect><g><rect fill-opacity="0.750" stroke="none" y="366.5" x="228.2" height="20.5" width="303.2" fill="#fff"></rect><g stroke="none"><g opacity="0.4"><text stroke-width="4" stroke="#fff" y="380.7" x="396.2" stroke-linejoin="bevel" fill="#fff">19</text></g><text y="380.7" x="396.2">19</text></g></g></g><g><rect fill-opacity="0.004" y="10" x="402.7" height="355" width="6.6" fill="#fff"></rect><g><rect fill-opacity="0.750" stroke="none" y="366.5" x="228.2" height="20.5" width="303.2" fill="#fff"></rect><g stroke="none"><g opacity="0.4"><text stroke-width="4" stroke="#fff" y="380.7" x="402.7" stroke-linejoin="bevel" fill="#fff">20</text></g><text y="380.7" x="402.7">20</text></g></g></g><g><rect fill-opacity="0.004" y="10" x="409.3" height="355" width="6.6" fill="#fff"></rect><g><rect fill-opacity="0.750" stroke="none" y="366.5" x="228.2" height="20.5" width="303.2" fill="#fff"></rect><g stroke="none"><g opacity="0.4"><text stroke-width="4" stroke="#fff" y="380.7" x="409.3" stroke-linejoin="bevel" fill="#fff">21</text></g><text y="380.7" x="409.3">21</text></g></g></g><g><rect fill-opacity="0.004" y="10" x="415.8" height="355" width="6.6" fill="#fff"></rect><g><rect fill-opacity="0.750" stroke="none" y="366.5" x="228.2" height="20.5" width="303.2" fill="#fff"></rect><g stroke="none"><g opacity="0.4"><text stroke-width="4" stroke="#fff" y="380.7" x="415.8" stroke-linejoin="bevel" fill="#fff">22</text></g><text y="380.7" x="415.8">22</text></g></g></g><g><rect fill-opacity="0.004" y="10" x="422.4" height="355" width="6.6" fill="#fff"></rect><g><rect fill-opacity="0.750" stroke="none" y="366.5" x="228.2" height="20.5" width="303.2" fill="#fff"></rect><g stroke="none"><g opacity="0.4"><text stroke-width="4" stroke="#fff" y="380.7" x="422.4" stroke-linejoin="bevel" fill="#fff">23</text></g><text y="380.7" x="422.4">23</text></g></g></g><g><rect fill-opacity="0.004" y="10" x="428.9" height="355" width="6.6" fill="#fff"></rect><g><rect fill-opacity="0.750" stroke="none" y="366.5" x="228.2" height="20.5" width="303.2" fill="#fff"></rect><g stroke="none"><g opacity="0.4"><text stroke-width="4" stroke="#fff" y="380.7" x="428.9" stroke-linejoin="bevel" fill="#fff">24</text></g><text y="380.7" x="428.9">24</text></g></g></g><g><rect fill-opacity="0.004" y="10" x="435.5" height="355" width="6.6" fill="#fff"></rect><g><rect fill-opacity="0.750" stroke="none" y="366.5" x="228.2" height="20.5" width="303.2" fill="#fff"></rect><g stroke="none"><g opacity="0.4"><text stroke-width="4" stroke="#fff" y="380.7" x="435.5" stroke-linejoin="bevel" fill="#fff">25</text></g><text y="380.7" x="435.5">25</text></g></g></g><g><rect fill-opacity="0.004" y="10" x="442" height="355" width="6.6" fill="#fff"></rect><g><rect fill-opacity="0.750" stroke="none" y="366.5" x="228.2" height="20.5" width="303.2" fill="#fff"></rect><g stroke="none"><g opacity="0.4"><text stroke-width="4" stroke="#fff" y="380.7" x="442" stroke-linejoin="bevel" fill="#fff">26</text></g><text y="380.7" x="442">26</text></g></g></g><g><rect fill-opacity="0.004" y="10" x="448.6" height="355" width="6.6" fill="#fff"></rect><g><rect fill-opacity="0.750" stroke="none" y="366.5" x="228.2" height="20.5" width="303.2" fill="#fff"></rect><g stroke="none"><g opacity="0.4"><text stroke-width="4" stroke="#fff" y="380.7" x="448.6" stroke-linejoin="bevel" fill="#fff">27</text></g><text y="380.7" x="448.6">27</text></g></g></g><g><rect fill-opacity="0.004" y="10" x="455.2" height="355" width="6.6" fill="#fff"></rect><g><rect fill-opacity="0.750" stroke="none" y="366.5" x="228.2" height="20.5" width="303.2" fill="#fff"></rect><g stroke="none"><g opacity="0.4"><text stroke-width="4" stroke="#fff" y="380.7" x="455.2" stroke-linejoin="bevel" fill="#fff">28</text></g><text y="380.7" x="455.2">28</text></g></g></g><g><rect fill-opacity="0.004" y="10" x="461.7" height="355" width="6.6" fill="#fff"></rect><g><rect fill-opacity="0.750" stroke="none" y="366.5" x="228.2" height="20.5" width="303.2" fill="#fff"></rect><g stroke="none"><g opacity="0.4"><text stroke-width="4" stroke="#fff" y="380.7" x="461.7" stroke-linejoin="bevel" fill="#fff">29</text></g><text y="380.7" x="461.7">29</text></g></g></g><g><rect fill-opacity="0.004" y="10" x="468.3" height="355" width="6.6" fill="#fff"></rect><g><rect fill-opacity="0.750" stroke="none" y="366.5" x="228.2" height="20.5" width="303.2" fill="#fff"></rect><g stroke="none"><g opacity="0.4"><text stroke-width="4" stroke="#fff" y="380.7" x="468.3" stroke-linejoin="bevel" fill="#fff">30</text></g><text y="380.7" x="468.3">30</text></g></g></g><g><rect fill-opacity="0.004" y="10" x="474.8" height="355" width="6.6" fill="#fff"></rect><g><rect fill-opacity="0.750" stroke="none" y="366.5" x="228.2" height="20.5" width="303.2" fill="#fff"></rect><g stroke="none"><g opacity="0.4"><text stroke-width="4" stroke="#fff" y="380.7" x="474.8" stroke-linejoin="bevel" fill="#fff">31</text></g><text y="380.7" x="474.8">31</text></g></g></g><g stroke="none" fill="#000"><text y="333.7" text-anchor="end" x="71">75°F</text><text y="333.7" x="682">75°F</text><text y="272.3" text-anchor="end" x="71">80°F</text><text y="272.3" x="682">80°F</text><text y="211" text-anchor="end" x="71">85°F</text><text y="211" x="682">85°F</text><text y="149.7" text-anchor="end" x="71">90°F</text><text y="149.7" x="682">90°F</text><text y="88.3" text-anchor="end" x="71">95°F</text><text y="88.3" x="682">95°F</text><text y="27" text-anchor="end" x="71">100°F</text><text y="27" x="682">100°F</text></g><rect fill-opacity="0.000" stroke="none" y="5" x="78.3" height="5" width="199.9" fill="#fff"></rect><g><rect fill-opacity="0.004" stroke="none" y="10" x="78.3" height="355" width="199.9" fill="#fff"></rect><path stroke-width="5" stroke="#000" d="M103.3,202.5L88.3,187.5L103.3,172.5" stroke-linecap="round" stroke-linejoin="round" fill="none" stroke-opacity="0.3"></path><path stroke-width="3" stroke="#fff" d="M103.3,202.5L88.3,187.5L103.3,172.5" stroke-linecap="round" stroke-linejoin="round" fill="none" stroke-opacity="0.6"></path><line stroke-width="0.5" stroke="#000" x2="278.2" y1="10" x1="278.2" fill="none" y2="365" stroke-opacity="0.5019607843137255"></line><text y="381.3" text-anchor="middle" x="178.2">Jul</text></g><rect fill-opacity="0.000" stroke="none" y="5" x="481.4" height="5" width="193.4" fill="#fff"></rect><g><rect fill-opacity="0.004" stroke="none" y="10" x="481.4" height="355" width="193.4" fill="#fff"></rect><path stroke-width="5" stroke="#000" d="M649.7,202.5L664.7,187.5L649.7,172.5" stroke-linecap="round" stroke-linejoin="round" fill="none" stroke-opacity="0.3"></path><path stroke-width="3" stroke="#fff" d="M649.7,202.5L664.7,187.5L649.7,172.5" stroke-linecap="round" stroke-linejoin="round" fill="none" stroke-opacity="0.6"></path><line stroke-width="0.5" stroke="#000" x2="481.4" y1="10" x1="481.4" fill="none" y2="365" stroke-opacity="0.5019607843137255"></line><text y="381.3" text-anchor="middle" x="578">Sep</text></g><g font-family="sans-serif" text-decoration="none" font-style="normal" font-size="10" font-weight="normal"><rect rx="3" stroke="none" y="245.8" x="273.5" ry="3" height="10.4" width="16" fill="#fff"></rect><text font-family="sans-serif" stroke="none" opacity="1" y="254.3" text-decoration="none" text-anchor="middle" x="281.5" font-style="normal" font-size="10" fill="#592f93" font-weight="normal">81</text></g><g font-family="sans-serif" text-decoration="none" font-style="normal" font-size="10" font-weight="normal"><rect rx="3" stroke="none" y="253" x="365.2" ry="3" height="10.4" width="16" fill="#fff"></rect><text font-family="sans-serif" stroke="none" opacity="1" y="261.6" text-decoration="none" text-anchor="middle" x="373.2" font-style="normal" font-size="10" fill="#592f93" font-weight="normal">81</text></g><g font-family="sans-serif" text-decoration="none" font-style="normal" font-size="10" font-weight="normal"><rect rx="3" stroke="none" y="266.5" x="470.1" ry="3" height="10.4" width="16" fill="#fff"></rect><text font-family="sans-serif" stroke="none" opacity="1" y="275" text-decoration="none" text-anchor="middle" x="478.1" font-style="normal" font-size="10" fill="#592f93" font-weight="normal">80</text></g><g font-family="sans-serif" text-decoration="none" font-style="normal" font-size="10" font-weight="normal"><rect rx="3" stroke="none" y="98.1" x="273.5" ry="3" height="10.4" width="16" fill="#fff"></rect><text font-family="sans-serif" stroke="none" opacity="1" y="106.7" text-decoration="none" text-anchor="middle" x="281.5" font-style="normal" font-size="10" fill="#592f93" font-weight="normal">93</text></g><g font-family="sans-serif" text-decoration="none" font-style="normal" font-size="10" font-weight="normal"><rect rx="3" stroke="none" y="101.6" x="365.2" ry="3" height="10.4" width="16" fill="#fff"></rect><text font-family="sans-serif" stroke="none" opacity="1" y="110.1" text-decoration="none" text-anchor="middle" x="373.2" font-style="normal" font-size="10" fill="#592f93" font-weight="normal">93</text></g><g font-family="sans-serif" text-decoration="none" font-style="normal" font-size="10" font-weight="normal"><rect rx="3" stroke="none" y="100.2" x="470.1" ry="3" height="10.4" width="16" fill="#fff"></rect><text font-family="sans-serif" stroke="none" opacity="1" y="108.7" text-decoration="none" text-anchor="middle" x="478.1" font-style="normal" font-size="10" fill="#592f93" font-weight="normal">93</text></g><g font-family="sans-serif" text-decoration="none" font-style="normal" font-size="10" font-weight="normal"><rect rx="3" stroke="none" y="112.6" x="365.2" ry="3" height="10.4" width="16" fill="#fff"></rect><text font-family="sans-serif" stroke="none" opacity="1" y="121.1" text-decoration="none" text-anchor="middle" x="373.2" font-style="normal" font-size="10" fill="#03a45e" font-weight="normal">92</text></g><g font-family="sans-serif" text-decoration="none" font-style="normal" font-size="10" font-weight="normal"><rect rx="3" stroke="none" y="114.7" x="470.1" ry="3" height="10.4" width="16" fill="#fff"></rect><text font-family="sans-serif" stroke="none" opacity="1" y="123.2" text-decoration="none" text-anchor="middle" x="478.1" font-style="normal" font-size="10" fill="#03a45e" font-weight="normal">92</text></g><g font-family="sans-serif" text-decoration="none" font-style="normal" font-size="10" font-weight="normal"><rect rx="3" stroke="none" y="264.8" x="273.5" ry="3" height="10.4" width="16" fill="#fff"></rect><text font-family="sans-serif" stroke="none" opacity="1" y="273.3" text-decoration="none" text-anchor="middle" x="281.5" font-style="normal" font-size="10" fill="#ee1c25" font-weight="normal">80</text></g><g font-family="sans-serif" text-decoration="none" font-style="normal" font-size="10" font-weight="normal"><rect rx="3" stroke="none" y="267.2" x="365.2" ry="3" height="10.4" width="16" fill="#fff"></rect><text font-family="sans-serif" stroke="none" opacity="1" y="275.7" text-decoration="none" text-anchor="middle" x="373.2" font-style="normal" font-size="10" fill="#ee1c25" font-weight="normal">80</text></g><g font-family="sans-serif" text-decoration="none" font-style="normal" font-size="10" font-weight="normal"><rect rx="3" stroke="none" y="278.2" x="365.2" ry="3" height="10.4" width="16" fill="#fff"></rect><text font-family="sans-serif" stroke="none" opacity="1" y="286.8" text-decoration="none" text-anchor="middle" x="373.2" font-style="normal" font-size="10" fill="#0465ff" font-weight="normal">79</text></g><g font-family="sans-serif" text-decoration="none" font-style="normal" font-size="10" font-weight="normal"><rect rx="3" stroke="none" y="284.1" x="470.1" ry="3" height="10.4" width="16" fill="#fff"></rect><text font-family="sans-serif" stroke="none" opacity="1" y="292.6" text-decoration="none" text-anchor="middle" x="478.1" font-style="normal" font-size="10" fill="#0465ff" font-weight="normal">78</text></g><g font-family="sans-serif" text-decoration="none" font-style="normal" font-size="10" font-weight="normal"><rect rx="3" stroke="none" y="200.3" x="273.5" ry="3" height="10.4" width="16" fill="#fff"></rect><text font-family="sans-serif" stroke="none" opacity="1" y="208.8" text-decoration="none" text-anchor="middle" x="281.5" font-style="normal" font-size="10" fill="#0465ff" font-weight="normal">85</text></g><g font-family="sans-serif" text-decoration="none" font-style="normal" font-size="10" font-weight="normal"><rect rx="3" stroke="none" y="200.3" x="365.2" ry="3" height="10.4" width="16" fill="#fff"></rect><text font-family="sans-serif" stroke="none" opacity="1" y="208.8" text-decoration="none" text-anchor="middle" x="373.2" font-style="normal" font-size="10" fill="#0465ff" font-weight="normal">85</text></g><g font-family="sans-serif" text-decoration="none" font-style="normal" font-size="10" font-weight="normal"><rect rx="3" stroke="none" y="194" x="470.1" ry="3" height="10.4" width="16" fill="#fff"></rect><text font-family="sans-serif" stroke="none" opacity="1" y="202.6" text-decoration="none" text-anchor="middle" x="478.1" font-style="normal" font-size="10" fill="#0465ff" font-weight="normal">86</text></g><g font-family="sans-serif" text-decoration="none" font-style="normal" font-size="15" font-weight="normal"><g font-family="sans-serif" stroke="none" opacity="1" text-decoration="none" font-style="normal" font-size="15" fill="#592f93" font-weight="normal"><g opacity="0.6"><text stroke-width="4" stroke="#fff" y="36.2" x="84.8" stroke-linejoin="bevel" fill="#fff">Gurgaon</text></g><text y="36.2" x="84.8">Gurgaon</text></g></g><g font-family="sans-serif" text-decoration="none" font-style="normal" font-size="15" font-weight="normal"><g font-family="sans-serif" stroke="none" opacity="1" text-decoration="none" font-style="normal" font-size="15" fill="#03a45e" font-weight="normal"><g opacity="0.6"><text stroke-width="4" stroke="#fff" y="330.9" text-anchor="end" x="635.4" stroke-linejoin="bevel" fill="#fff">Delhi</text></g><text y="330.9" text-anchor="end" x="635.4">Delhi</text></g></g><g font-family="sans-serif" text-decoration="none" font-style="normal" font-size="15" font-weight="normal"><g font-family="sans-serif" stroke="none" opacity="1" text-decoration="none" font-style="normal" font-size="15" fill="#ee1c25" font-weight="normal"><g opacity="0.6"><text stroke-width="4" stroke="#fff" y="146.8" x="616.7" stroke-linejoin="bevel" fill="#fff">Chennai</text></g><text y="146.8" x="616.7">Chennai</text></g></g><g font-family="sans-serif" text-decoration="none" font-style="normal" font-size="15" font-weight="normal"><g font-family="sans-serif" stroke="none" opacity="1" text-decoration="none" font-style="normal" font-size="15" fill="#0465ff" font-weight="normal"><g opacity="0.6"><text stroke-width="4" stroke="#fff" y="209.8" text-anchor="end" x="163.5" stroke-linejoin="bevel" fill="#fff">Mumbai</text></g><text y="209.8" text-anchor="end" x="163.5">Mumbai</text></g></g></svg>