<svg font-family="sans-serif" viewBox="0 0 753 387" xmlns:xlink="http://www.w3.org/1999/xlink" text-decoration="none" font-style="normal" width="753px" xmlns="http://www.w3.org/2000/svg" font-size="15" version="1.1" font-weight="normal" height="387px"><title>Average High and Low Temperature in September</title><defs><clipPath id="plot-sample-bounds-0"><rect y="0" x="78.3" height="365" width="596.4"></rect></clipPath><clipPath id="plot-sample-bounds-scaled-0"><rect y="0" x="782.8" height="3650" width="5964.5"></rect></clipPath></defs><g transform="scale(0.1)"><g clip-path="url(#plot-sample-bounds-scaled-0)"><path stroke-width="20" stroke="#592f93" d="M783,1534l65,3l66,3l65,3l66,5l65,5l66,3l66,5l65,6l66,5l65,6l66,5l65,3l66,2l65,3l66,5l65,6l66,2l66,6l65,3l66,8l65,5l66,11l65,8l66,5l65,8l66,8l65,8l66,6l66,8l65,8l66,5l65,8l66,9l65,8l66,8l65,8l66,8l65,11l66,13l66,14l65,10l66,14l65,13l66,14l65,19l66,18l65,16l66,19l65,16l66,17l65,18l66,19l66,19l65,22l66,21l65,22l66,24l65,24l66,27l65,27l66,32l65,33l66,29l66,35l65,35l66,35l65,35l66,38l65,32l66,35l65,30l66,35l65,35l66,35l66,35l65,35l66,35l65,35l66,35l65,38l66,35l65,35l66,35l65,35l66,35l66,37l65,38l66,35l65,32l66,32l65,33" fill="none" stroke-opacity="1.0"></path></g><g clip-path="url(#plot-sample-bounds-scaled-0)"><path stroke-width="20" stroke="#592f93" d="M783,382l65,6l66,0l65,10l66,0l65,6l66,5l66,0l65,6l66,5l65,0l66,0l65,-5l66,0l65,-6l66,0l65,0l66,-5l66,-6l65,0l66,0l65,-5l66,5l65,0l66,0l65,0l66,6l65,5l66,-5l66,0l65,-6l66,0l65,-5l66,0l65,0l66,-5l65,0l66,-6l65,0l66,-5l66,0l65,-5l66,-6l65,-5l66,0l65,0l66,-6l65,0l66,0l65,0l66,0l65,0l66,0l66,0l65,-5l66,0l65,0l66,0l65,0l66,5l65,6l66,11l65,5l66,11l66,10l65,11l66,11l65,16l66,16l65,11l66,11l65,16l66,16l65,16l66,22l66,21l65,22l66,21l65,22l66,27l65,21l66,27l65,22l66,27l65,27l66,29l66,30l65,27l66,29l65,30l66,27l65,24" fill="none" stroke-opacity="1.0"></path></g><path fill-opacity="0.039" stroke="none" d="M783,1534l65,3l66,3l65,3l66,5l65,5l66,3l66,5l65,6l66,5l65,6l66,5l65,3l66,2l65,3l66,5l65,6l66,2l66,6l65,3l66,8l65,5l66,11l65,8l66,5l65,8l66,8l65,8l66,6l66,8l65,8l66,5l65,8l66,9l65,8l66,8l65,8l66,8l65,11l66,13l66,14l65,10l66,14l65,13l66,14l65,19l66,18l65,16l66,19l65,16l66,17l65,18l66,19l66,19l65,22l66,21l65,22l66,24l65,24l66,27l65,27l66,32l65,33l66,29l66,35l65,35l66,35l65,35l66,38l65,32l66,35l65,30l66,35l65,35l66,35l66,35l65,35l66,35l65,35l66,35l65,38l66,35l65,35l66,35l65,35l66,35l66,37l65,38l66,35l65,32l66,32l65,33l0,-2259l-65,-24l-66,-27l-65,-30l-66,-29l-65,-27l-66,-30l-66,-29l-65,-27l-66,-27l-65,-22l-66,-27l-65,-21l-66,-27l-65,-22l-66,-21l-65,-22l-66,-21l-66,-22l-65,-16l-66,-16l-65,-16l-66,-11l-65,-11l-66,-16l-65,-16l-66,-11l-65,-11l-66,-10l-66,-11l-65,-5l-66,-11l-65,-6l-66,-5l-65,0l-66,0l-65,0l-66,0l-65,5l-66,0l-66,0l-65,0l-66,0l-65,0l-66,0l-65,0l-66,6l-65,0l-66,0l-65,5l-66,6l-65,5l-66,0l-66,5l-65,0l-66,6l-65,0l-66,5l-65,0l-66,0l-65,5l-66,0l-65,6l-66,0l-66,5l-65,-5l-66,-6l-65,0l-66,0l-65,0l-66,-5l-65,5l-66,0l-65,0l-66,6l-66,5l-65,0l-66,0l-65,6l-66,0l-65,5l-66,0l-65,0l-66,-5l-65,-6l-66,0l-66,-5l-65,-6l-66,0l-65,-10l-66,0l-65,-6Z" fill="#592f93"></path><g clip-path="url(#plot-sample-bounds-scaled-0)"><path stroke-width="20" stroke="#03a45e" d="M783,1543l65,0l66,2l65,3l66,5l65,3l66,5l66,6l65,5l66,6l65,5l66,3l65,2l66,3l65,5l66,6l65,5l66,3l66,5l65,6l66,5l65,5l66,8l65,9l66,8l65,8l66,5l65,8l66,8l66,8l65,8l66,6l65,11l66,10l65,8l66,11l65,8l66,8l65,11l66,14l66,13l65,13l66,14l65,16l66,16l65,19l66,19l65,21l66,19l65,19l66,19l65,19l66,21l66,22l65,24l66,24l65,27l66,27l65,27l66,30l65,32l66,32l65,35l66,35l66,38l65,38l66,37l65,41l66,40l65,38l66,37l65,38l66,38l65,38l66,40l66,38l65,40l66,40l65,38l66,40l65,41l66,38l65,37l66,41l65,40l66,38l66,40l65,38l66,37l65,35l66,33l65,32" fill="none" stroke-opacity="1.0"></path></g><g clip-path="url(#plot-sample-bounds-scaled-0)"><path stroke-width="20" stroke="#03a45e" d="M783,447l65,11l66,0l65,10l66,0l65,6l66,5l66,6l65,5l66,5l65,6l66,0l65,0l66,0l65,-6l66,6l65,0l66,-6l66,0l65,0l66,0l65,-5l66,5l65,6l66,0l65,5l66,6l65,5l66,0l66,-5l65,0l66,0l65,-6l66,6l65,-6l66,0l65,0l66,-5l65,5l66,-5l66,0l65,0l66,0l65,-6l66,0l65,6l66,-6l65,0l66,6l65,0l66,0l65,5l66,0l66,0l65,0l66,0l65,0l66,0l65,0l66,11l65,5l66,11l65,11l66,11l66,10l65,11l66,11l65,11l66,16l65,16l66,11l65,11l66,21l65,16l66,22l66,21l65,19l66,24l65,22l66,24l65,22l66,24l65,21l66,25l65,29l66,24l66,30l65,27l66,27l65,30l66,24l65,24" fill="none" stroke-opacity="1.0"></path></g><path fill-opacity="0.039" stroke="none" d="M783,1543l65,0l66,2l65,3l66,5l65,3l66,5l66,6l65,5l66,6l65,5l66,3l65,2l66,3l65,5l66,6l65,5l66,3l66,5l65,6l66,5l65,5l66,8l65,9l66,8l65,8l66,5l65,8l66,8l66,8l65,8l66,6l65,11l66,10l65,8l66,11l65,8l66,8l65,11l66,14l66,13l65,13l66,14l65,16l66,16l65,19l66,19l65,21l66,19l65,19l66,19l65,19l66,21l66,22l65,24l66,24l65,27l66,27l65,27l66,30l65,32l66,32l65,35l66,35l66,38l65,38l66,37l65,41l66,40l65,38l66,37l65,38l66,38l65,38l66,40l66,38l65,40l66,40l65,38l66,40l65,41l66,38l65,37l66,41l65,40l66,38l66,40l65,38l66,37l65,35l66,33l65,32l0,-2272l-65,-24l-66,-24l-65,-30l-66,-27l-65,-27l-66,-30l-66,-24l-65,-29l-66,-25l-65,-21l-66,-24l-65,-22l-66,-24l-65,-22l-66,-24l-65,-19l-66,-21l-66,-22l-65,-16l-66,-21l-65,-11l-66,-11l-65,-16l-66,-16l-65,-11l-66,-11l-65,-11l-66,-10l-66,-11l-65,-11l-66,-11l-65,-5l-66,-11l-65,0l-66,0l-65,0l-66,0l-65,0l-66,0l-66,0l-65,-5l-66,0l-65,0l-66,-6l-65,0l-66,6l-65,-6l-66,0l-65,6l-66,0l-65,0l-66,0l-66,5l-65,-5l-66,5l-65,0l-66,0l-65,6l-66,-6l-65,6l-66,0l-65,0l-66,5l-66,0l-65,-5l-66,-6l-65,-5l-66,0l-65,-6l-66,-5l-65,5l-66,0l-65,0l-66,0l-66,6l-65,0l-66,-6l-65,6l-66,0l-65,0l-66,0l-65,-6l-66,-5l-65,-5l-66,-6l-66,-5l-65,-6l-66,0l-65,-10l-66,0l-65,-11Z" fill="#03a45e"></path><g clip-path="url(#plot-sample-bounds-scaled-0)"><path stroke-width="20" stroke="#ee1c25" d="M783,1683l65,2l66,6l65,0l66,5l65,-3l66,0l66,3l65,3l66,0l65,2l66,0l65,0l66,0l65,0l66,3l65,3l66,2l66,3l65,3l66,0l65,3l66,0l65,-3l66,0l65,3l66,0l65,2l66,0l66,3l65,0l66,-3l65,3l66,0l65,3l66,0l65,2l66,3l65,0l66,0l66,3l65,0l66,5l65,0l66,8l65,6l66,0l65,2l66,3l65,3l66,2l65,3l66,3l66,2l65,3l66,3l65,0l66,2l65,6l66,3l65,5l66,3l65,2l66,8l66,6l65,8l66,5l65,8l66,8l65,8l66,9l65,10l66,8l65,8l66,8l66,6l65,8l66,5l65,8l66,11l65,6l66,8l65,10l66,11l65,8l66,8l66,11l65,11l66,8l65,11l66,8l65,11" fill="none" stroke-opacity="1.0"></path></g><g clip-path="url(#plot-sample-bounds-scaled-0)"><path stroke-width="20" stroke="#ee1c25" d="M783,463l65,0l66,5l65,6l66,0l65,0l66,0l66,0l65,0l66,5l65,0l66,0l65,0l66,0l65,0l66,6l65,0l66,0l66,5l65,0l66,5l65,0l66,0l65,0l66,0l65,6l66,0l65,5l66,0l66,6l65,0l66,0l65,0l66,0l65,0l66,5l65,0l66,0l65,5l66,6l66,0l65,5l66,0l65,5l66,11l65,6l66,10l65,6l66,5l65,6l66,10l65,6l66,5l66,5l65,6l66,5l65,11l66,5l65,6l66,5l65,11l66,5l65,11l66,11l66,16l65,11l66,16l65,11l66,13l65,16l66,14l65,13l66,19l65,16l66,11l66,13l65,11l66,11l65,16l66,14l65,16l66,13l65,16l66,16l65,17l66,13l66,16l65,14l66,13l65,14l66,13l65,14" fill="none" stroke-opacity="1.0"></path></g><path fill-opacity="0.039" stroke="none" d="M783,1683l65,2l66,6l65,0l66,5l65,-3l66,0l66,3l65,3l66,0l65,2l66,0l65,0l66,0l65,0l66,3l65,3l66,2l66,3l65,3l66,0l65,3l66,0l65,-3l66,0l65,3l66,0l65,2l66,0l66,3l65,0l66,-3l65,3l66,0l65,3l66,0l65,2l66,3l65,0l66,0l66,3l65,0l66,5l65,0l66,8l65,6l66,0l65,2l66,3l65,3l66,2l65,3l66,3l66,2l65,3l66,3l65,0l66,2l65,6l66,3l65,5l66,3l65,2l66,8l66,6l65,8l66,5l65,8l66,8l65,8l66,9l65,10l66,8l65,8l66,8l66,6l65,8l66,5l65,8l66,11l65,6l66,8l65,10l66,11l65,8l66,8l66,11l65,11l66,8l65,11l66,8l65,11l0,-961l-65,-14l-66,-13l-65,-14l-66,-13l-65,-14l-66,-16l-66,-13l-65,-17l-66,-16l-65,-16l-66,-13l-65,-16l-66,-14l-65,-16l-66,-11l-65,-11l-66,-13l-66,-11l-65,-16l-66,-19l-65,-13l-66,-14l-65,-16l-66,-13l-65,-11l-66,-16l-65,-11l-66,-16l-66,-11l-65,-11l-66,-5l-65,-11l-66,-5l-65,-6l-66,-5l-65,-11l-66,-5l-65,-6l-66,-5l-66,-5l-65,-6l-66,-10l-65,-6l-66,-5l-65,-6l-66,-10l-65,-6l-66,-11l-65,-5l-66,0l-65,-5l-66,0l-66,-6l-65,-5l-66,0l-65,0l-66,-5l-65,0l-66,0l-65,0l-66,0l-65,0l-66,-6l-66,0l-65,-5l-66,0l-65,-6l-66,0l-65,0l-66,0l-65,0l-66,-5l-65,0l-66,-5l-66,0l-65,0l-66,-6l-65,0l-66,0l-65,0l-66,0l-65,0l-66,-5l-65,0l-66,0l-66,0l-65,0l-66,0l-65,-6l-66,-5l-65,0Z" fill="#ee1c25"></path><g clip-path="url(#plot-sample-bounds-scaled-0)"><path stroke-width="20" stroke="#0465ff" d="M783,1761l65,-3l66,3l65,0l66,2l65,3l66,3l66,2l65,6l66,2l65,3l66,0l65,3l66,0l65,3l66,2l65,3l66,0l66,5l65,6l66,0l65,2l66,3l65,3l66,2l65,6l66,3l65,2l66,0l66,3l65,5l66,6l65,5l66,3l65,2l66,3l65,3l66,3l65,2l66,0l66,0l65,3l66,3l65,0l66,0l65,0l66,2l65,0l66,3l65,3l66,0l65,0l66,0l66,2l65,0l66,0l65,0l66,-2l65,0l66,5l65,0l66,0l65,0l66,3l66,2l65,3l66,3l65,2l66,6l65,5l66,6l65,5l66,8l65,8l66,6l66,10l65,8l66,11l65,8l66,8l65,8l66,8l65,11l66,8l65,11l66,11l66,13l65,14l66,16l65,13l66,11l65,14" fill="none" stroke-opacity="1.0"></path></g><g clip-path="url(#plot-sample-bounds-scaled-0)"><path stroke-width="20" stroke="#0465ff" d="M783,1179l65,-3l66,0l65,0l66,0l65,0l66,0l66,3l65,0l66,3l65,-3l66,0l65,0l66,0l65,0l66,-3l65,-2l66,0l66,-3l65,-3l66,-2l65,-3l66,-3l65,-2l66,-3l65,-3l66,-2l65,-6l66,-8l66,-3l65,-2l66,-6l65,-2l66,-3l65,-3l66,-5l65,0l66,-6l65,-5l66,-5l66,-8l65,-6l66,-8l65,-11l66,-10l65,-17l66,-10l65,-11l66,-11l65,-8l66,-8l65,-13l66,-11l66,-14l65,-13l66,-14l65,-13l66,-16l65,-16l66,-14l65,-16l66,-19l65,-16l66,-19l66,-16l65,-19l66,-17l65,-21l66,-21l65,-16l66,-16l65,-16l66,-17l65,-16l66,-11l66,-16l65,-10l66,-11l65,-11l66,-16l65,-11l66,-11l65,-5l66,-11l65,-11l66,-5l66,-5l65,0l66,0l65,0l66,-6l65,6" fill="none" stroke-opacity="1.0"></path></g><path fill-opacity="0.039" stroke="none" d="M783,1761l65,-3l66,3l65,0l66,2l65,3l66,3l66,2l65,6l66,2l65,3l66,0l65,3l66,0l65,3l66,2l65,3l66,0l66,5l65,6l66,0l65,2l66,3l65,3l66,2l65,6l66,3l65,2l66,0l66,3l65,5l66,6l65,5l66,3l65,2l66,3l65,3l66,3l65,2l66,0l66,0l65,3l66,3l65,0l66,0l65,0l66,2l65,0l66,3l65,3l66,0l65,0l66,0l66,2l65,0l66,0l65,0l66,-2l65,0l66,5l65,0l66,0l65,0l66,3l66,2l65,3l66,3l65,2l66,6l65,5l66,6l65,5l66,8l65,8l66,6l66,10l65,8l66,11l65,8l66,8l65,8l66,8l65,11l66,8l65,11l66,11l66,13l65,14l66,16l65,13l66,11l65,14l0,-1634l-65,-6l-66,6l-65,0l-66,0l-65,0l-66,5l-66,5l-65,11l-66,11l-65,5l-66,11l-65,11l-66,16l-65,11l-66,11l-65,10l-66,16l-66,11l-65,16l-66,17l-65,16l-66,16l-65,16l-66,21l-65,21l-66,17l-65,19l-66,16l-66,19l-65,16l-66,19l-65,16l-66,14l-65,16l-66,16l-65,13l-66,14l-65,13l-66,14l-66,11l-65,13l-66,8l-65,8l-66,11l-65,11l-66,10l-65,17l-66,10l-65,11l-66,8l-65,6l-66,8l-66,5l-65,5l-66,6l-65,0l-66,5l-65,3l-66,3l-65,2l-66,6l-65,2l-66,3l-66,8l-65,6l-66,2l-65,3l-66,3l-65,2l-66,3l-65,3l-66,2l-65,3l-66,3l-66,0l-65,2l-66,3l-65,0l-66,0l-65,0l-66,0l-65,3l-66,-3l-65,0l-66,-3l-66,0l-65,0l-66,0l-65,0l-66,0l-65,3Z" fill="#0465ff"></path></g><g stroke-width="1" stroke="#000" fill="none" stroke-opacity="0.072"><line x2="94.7" y1="10" x1="94.7" y2="370" stroke-opacity="0.12"></line><line x2="140.5" y1="10" x1="140.5" y2="370" stroke-opacity="0.12"></line><line x2="186.4" y1="10" x1="186.4" y2="370" stroke-opacity="0.12"></line><line x2="232.3" y1="10" x1="232.3" y2="370" stroke-opacity="0.12"></line><line x2="278.2" y1="10" x1="278.2" y2="370" stroke-opacity="0.12"></line><line x2="324.1" y1="10" x1="324.1" y2="370" stroke-opacity="0.12"></line><line x2="369.9" y1="10" x1="369.9" y2="370" stroke-opacity="0.12"></line><line x2="415.8" y1="10" x1="415.8" y2="370" stroke-opacity="0.12"></line><line x2="461.7" y1="10" x1="461.7" y2="370" stroke-opacity="0.12"></line><line x2="507.6" y1="10" x1="507.6" y2="370" stroke-opacity="0.12"></line><line x2="553.5" y1="10" x1="553.5" y2="370" stroke-opacity="0.12"></line><line x2="599.3" y1="10" x1="599.3" y2="370" stroke-opacity="0.12"></line><line x2="645.2" y1="10" x1="645.2" y2="370" stroke-opacity="0.12"></line><line x2="681" y1="357.6" x1="72" y2="357.6"></line><line x2="681" y1="309.8" x1="72" y2="309.8"></line><line x2="681" y1="261.9" x1="72" y2="261.9"></line><line x2="681" y1="214" x1="72" y2="214"></line><line x2="681" y1="166.2" x1="72" y2="166.2"></line><line x2="681" y1="118.3" x1="72" y2="118.3"></line><line x2="681" y1="70.5" x1="72" y2="70.5"></line><line x2="681" y1="22.6" x1="72" y2="22.6"></line></g><g><text stroke="none" y="380.7" x="278.2">1</text></g><g><text stroke="none" y="380.7" x="324.1">8</text></g><g><text stroke="none" y="380.7" x="369.9">15</text></g><g><text stroke="none" y="380.7" x="415.8">22</text></g><g><text stroke="none" y="380.7" x="461.7">29</text></g><g><rect fill-opacity="0.004" y="10" x="278.2" height="355" width="6.6" fill="#fff"></rect><g><rect fill-opacity="0.750" stroke="none" y="366.5" x="228.2" height="20.5" width="296.6" fill="#fff"></rect><g stroke="none"><g opacity="0.4"><text stroke-width="4" stroke="#fff" y="380.7" x="278.2" stroke-linejoin="bevel" fill="#fff">1</text></g><text y="380.7" x="278.2">1</text></g></g></g><g><rect fill-opacity="0.004" y="10" x="284.7" height="355" width="6.6" fill="#fff"></rect><g><rect fill-opacity="0.750" stroke="none" y="366.5" x="228.2" height="20.5" width="296.6" fill="#fff"></rect><g stroke="none"><g opacity="0.4"><text stroke-width="4" stroke="#fff" y="380.7" x="284.7" stroke-linejoin="bevel" fill="#fff">2</text></g><text y="380.7" x="284.7">2</text></g></g></g><g><rect fill-opacity="0.004" y="10" x="291.3" height="355" width="6.6" fill="#fff"></rect><g><rect fill-opacity="0.750" stroke="none" y="366.5" x="228.2" height="20.5" width="296.6" fill="#fff"></rect><g stroke="none"><g opacity="0.4"><text stroke-width="4" stroke="#fff" y="380.7" x="291.3" stroke-linejoin="bevel" fill="#fff">3</text></g><text y="380.7" x="291.3">3</text></g></g></g><g><rect fill-opacity="0.004" y="10" x="297.8" height="355" width="6.6" fill="#fff"></rect><g><rect fill-opacity="0.750" stroke="none" y="366.5" x="228.2" height="20.5" width="296.6" fill="#fff"></rect><g stroke="none"><g opacity="0.4"><text stroke-width="4" stroke="#fff" y="380.7" x="297.8" stroke-linejoin="bevel" fill="#fff">4</text></g><text y="380.7" x="297.8">4</text></g></g></g><g><rect fill-opacity="0.004" y="10" x="304.4" height="355" width="6.6" fill="#fff"></rect><g><rect fill-opacity="0.750" stroke="none" y="366.5" x="228.2" height="20.5" width="296.6" fill="#fff"></rect><g stroke="none"><g opacity="0.4"><text stroke-width="4" stroke="#fff" y="380.7" x="304.4" stroke-linejoin="bevel" fill="#fff">5</text></g><text y="380.7" x="304.4">5</text></g></g></g><g><rect fill-opacity="0.004" y="10" x="311" height="355" width="6.6" fill="#fff"></rect><g><rect fill-opacity="0.750" stroke="none" y="366.5" x="228.2" height="20.5" width="296.6" fill="#fff"></rect><g stroke="none"><g opacity="0.4"><text stroke-width="4" stroke="#fff" y="380.7" x="311" stroke-linejoin="bevel" fill="#fff">6</text></g><text y="380.7" x="311">6</text></g></g></g><g><rect fill-opacity="0.004" y="10" x="317.5" height="355" width="6.6" fill="#fff"></rect><g><rect fill-opacity="0.750" stroke="none" y="366.5" x="228.2" height="20.5" width="296.6" fill="#fff"></rect><g stroke="none"><g opacity="0.4"><text stroke-width="4" stroke="#fff" y="380.7" x="317.5" stroke-linejoin="bevel" fill="#fff">7</text></g><text y="380.7" x="317.5">7</text></g></g></g><g><rect fill-opacity="0.004" y="10" x="324.1" height="355" width="6.6" fill="#fff"></rect><g><rect fill-opacity="0.750" stroke="none" y="366.5" x="228.2" height="20.5" width="296.6" fill="#fff"></rect><g stroke="none"><g opacity="0.4"><text stroke-width="4" stroke="#fff" y="380.7" x="324.1" stroke-linejoin="bevel" fill="#fff">8</text></g><text y="380.7" x="324.1">8</text></g></g></g><g><rect fill-opacity="0.004" y="10" x="330.6" height="355" width="6.6" fill="#fff"></rect><g><rect fill-opacity="0.750" stroke="none" y="366.5" x="228.2" height="20.5" width="296.6" fill="#fff"></rect><g stroke="none"><g opacity="0.4"><text stroke-width="4" stroke="#fff" y="380.7" x="330.6" stroke-linejoin="bevel" fill="#fff">9</text></g><text y="380.7" x="330.6">9</text></g></g></g><g><rect fill-opacity="0.004" y="10" x="337.2" height="355" width="6.6" fill="#fff"></rect><g><rect fill-opacity="0.750" stroke="none" y="366.5" x="228.2" height="20.5" width="296.6" fill="#fff"></rect><g stroke="none"><g opacity="0.4"><text stroke-width="4" stroke="#fff" y="380.7" x="337.2" stroke-linejoin="bevel" fill="#fff">10</text></g><text y="380.7" x="337.2">10</text></g></g></g><g><rect fill-opacity="0.004" y="10" x="343.7" height="355" width="6.6" fill="#fff"></rect><g><rect fill-opacity="0.750" stroke="none" y="366.5" x="228.2" height="20.5" width="296.6" fill="#fff"></rect><g stroke="none"><g opacity="0.4"><text stroke-width="4" stroke="#fff" y="380.7" x="343.7" stroke-linejoin="bevel" fill="#fff">11</text></g><text y="380.7" x="343.7">11</text></g></g></g><g><rect fill-opacity="0.004" y="10" x="350.3" height="355" width="6.6" fill="#fff"></rect><g><rect fill-opacity="0.750" stroke="none" y="366.5" x="228.2" height="20.5" width="296.6" fill="#fff"></rect><g stroke="none"><g opacity="0.4"><text stroke-width="4" stroke="#fff" y="380.7" x="350.3" stroke-linejoin="bevel" fill="#fff">12</text></g><text y="380.7" x="350.3">12</text></g></g></g><g><rect fill-opacity="0.004" y="10" x="356.8" height="355" width="6.6" fill="#fff"></rect><g><rect fill-opacity="0.750" stroke="none" y="366.5" x="228.2" height="20.5" width="296.6" fill="#fff"></rect><g stroke="none"><g opacity="0.4"><text stroke-width="4" stroke="#fff" y="380.7" x="356.8" stroke-linejoin="bevel" fill="#fff">13</text></g><text y="380.7" x="356.8">13</text></g></g></g><g><rect fill-opacity="0.004" y="10" x="363.4" height="355" width="6.6" fill="#fff"></rect><g><rect fill-opacity="0.750" stroke="none" y="366.5" x="228.2" height="20.5" width="296.6" fill="#fff"></rect><g stroke="none"><g opacity="0.4"><text stroke-width="4" stroke="#fff" y="380.7" x="363.4" stroke-linejoin="bevel" fill="#fff">14</text></g><text y="380.7" x="363.4">14</text></g></g></g><g><rect fill-opacity="0.004" y="10" x="369.9" height="355" width="6.6" fill="#fff"></rect><g><rect fill-opacity="0.750" stroke="none" y="366.5" x="228.2" height="20.5" width="296.6" fill="#fff"></rect><g stroke="none"><g opacity="0.4"><text stroke-width="4" stroke="#fff" y="380.7" x="369.9" stroke-linejoin="bevel" fill="#fff">15</text></g><text y="380.7" x="369.9">15</text></g></g></g><g><rect fill-opacity="0.004" y="10" x="376.5" height="355" width="6.6" fill="#fff"></rect><g><rect fill-opacity="0.750" stroke="none" y="366.5" x="228.2" height="20.5" width="296.6" fill="#fff"></rect><g stroke="none"><g opacity="0.4"><text stroke-width="4" stroke="#fff" y="380.7" x="376.5" stroke-linejoin="bevel" fill="#fff">16</text></g><text y="380.7" x="376.5">16</text></g></g></g><g><rect fill-opacity="0.004" y="10" x="383.1" height="355" width="6.6" fill="#fff"></rect><g><rect fill-opacity="0.750" stroke="none" y="366.5" x="228.2" height="20.5" width="296.6" fill="#fff"></rect><g stroke="none"><g opacity="0.4"><text stroke-width="4" stroke="#fff" y="380.7" x="383.1" stroke-linejoin="bevel" fill="#fff">17</text></g><text y="380.7" x="383.1">17</text></g></g></g><g><rect fill-opacity="0.004" y="10" x="389.6" height="355" width="6.6" fill="#fff"></rect><g><rect fill-opacity="0.750" stroke="none" y="366.5" x="228.2" height="20.5" width="296.6" fill="#fff"></rect><g stroke="none"><g opacity="0.4"><text stroke-width="4" stroke="#fff" y="380.7" x="389.6" stroke-linejoin="bevel" fill="#fff">18</text></g><text y="380.7" x="389.6">18</text></g></g></g><g><rect fill-opacity="0.004" y="10" x="396.2" height="355" width="6.6" fill="#fff"></rect><g><rect fill-opacity="0.750" stroke="none" y="366.5" x="228.2" height="20.5" width="296.6" fill="#fff"></rect><g stroke="none"><g opacity="0.4"><text stroke-width="4" stroke="#fff" y="380.7" x="396.2" stroke-linejoin="bevel" fill="#fff">19</text></g><text y="380.7" x="396.2">19</text></g></g></g><g><rect fill-opacity="0.004" y="10" x="402.7" height="355" width="6.6" fill="#fff"></rect><g><rect fill-opacity="0.750" stroke="none" y="366.5" x="228.2" height="20.5" width="296.6" fill="#fff"></rect><g stroke="none"><g opacity="0.4"><text stroke-width="4" stroke="#fff" y="380.7" x="402.7" stroke-linejoin="bevel" fill="#fff">20</text></g><text y="380.7" x="402.7">20</text></g></g></g><g><rect fill-opacity="0.004" y="10" x="409.3" height="355" width="6.6" fill="#fff"></rect><g><rect fill-opacity="0.750" stroke="none" y="366.5" x="228.2" height="20.5" width="296.6" fill="#fff"></rect><g stroke="none"><g opacity="0.4"><text stroke-width="4" stroke="#fff" y="380.7" x="409.3" stroke-linejoin="bevel" fill="#fff">21</text></g><text y="380.7" x="409.3">21</text></g></g></g><g><rect fill-opacity="0.004" y="10" x="415.8" height="355" width="6.6" fill="#fff"></rect><g><rect fill-opacity="0.750" stroke="none" y="366.5" x="228.2" height="20.5" width="296.6" fill="#fff"></rect><g stroke="none"><g opacity="0.4"><text stroke-width="4" stroke="#fff" y="380.7" x="415.8" stroke-linejoin="bevel" fill="#fff">22</text></g><text y="380.7" x="415.8">22</text></g></g></g><g><rect fill-opacity="0.004" y="10" x="422.4" height="355" width="6.6" fill="#fff"></rect><g><rect fill-opacity="0.750" stroke="none" y="366.5" x="228.2" height="20.5" width="296.6" fill="#fff"></rect><g stroke="none"><g opacity="0.4"><text stroke-width="4" stroke="#fff" y="380.7" x="422.4" stroke-linejoin="bevel" fill="#fff">23</text></g><text y="380.7" x="422.4">23</text></g></g></g><g><rect fill-opacity="0.004" y="10" x="428.9" height="355" width="6.6" fill="#fff"></rect><g><rect fill-opacity="0.750" stroke="none" y="366.5" x="228.2" height="20.5" width="296.6" fill="#fff"></rect><g stroke="none"><g opacity="0.4"><text stroke-width="4" stroke="#fff" y="380.7" x="428.9" stroke-linejoin="bevel" fill="#fff">24</text></g><text y="380.7" x="428.9">24</text></g></g></g><g><rect fill-opacity="0.004" y="10" x="435.5" height="355" width="6.6" fill="#fff"></rect><g><rect fill-opacity="0.750" stroke="none" y="366.5" x="228.2" height="20.5" width="296.6" fill="#fff"></rect><g stroke="none"><g opacity="0.4"><text stroke-width="4" stroke="#fff" y="380.7" x="435.5" stroke-linejoin="bevel" fill="#fff">25</text></g><text y="380.7" x="435.5">25</text></g></g></g><g><rect fill-opacity="0.004" y="10" x="442" height="355" width="6.6" fill="#fff"></rect><g><rect fill-opacity="0.750" stroke="none" y="366.5" x="228.2" height="20.5" width="296.6" fill="#fff"></rect><g stroke="none"><g opacity="0.4"><text stroke-width="4" stroke="#fff" y="380.7" x="442" stroke-linejoin="bevel" fill="#fff">26</text></g><text y="380.7" x="442">26</text></g></g></g><g><rect fill-opacity="0.004" y="10" x="448.6" height="355" width="6.6" fill="#fff"></rect><g><rect fill-opacity="0.750" stroke="none" y="366.5" x="228.2" height="20.5" width="296.6" fill="#fff"></rect><g stroke="none"><g opacity="0.4"><text stroke-width="4" stroke="#fff" y="380.7" x="448.6" stroke-linejoin="bevel" fill="#fff">27</text></g><text y="380.7" x="448.6">27</text></g></g></g><g><rect fill-opacity="0.004" y="10" x="455.2" height="355" width="6.6" fill="#fff"></rect><g><rect fill-opacity="0.750" stroke="none" y="366.5" x="228.2" height="20.5" width="296.6" fill="#fff"></rect><g stroke="none"><g opacity="0.4"><text stroke-width="4" stroke="#fff" y="380.7" x="455.2" stroke-linejoin="bevel" fill="#fff">28</text></g><text y="380.7" x="455.2">28</text></g></g></g><g><rect fill-opacity="0.004" y="10" x="461.7" height="355" width="6.6" fill="#fff"></rect><g><rect fill-opacity="0.750" stroke="none" y="366.5" x="228.2" height="20.5" width="296.6" fill="#fff"></rect><g stroke="none"><g opacity="0.4"><text stroke-width="4" stroke="#fff" y="380.7" x="461.7" stroke-linejoin="bevel" fill="#fff">29</text></g><text y="380.7" x="461.7">29</text></g></g></g><g><rect fill-opacity="0.004" y="10" x="468.3" height="355" width="6.6" fill="#fff"></rect><g><rect fill-opacity="0.750" stroke="none" y="366.5" x="228.2" height="20.5" width="296.6" fill="#fff"></rect><g stroke="none"><g opacity="0.4"><text stroke-width="4" stroke="#fff" y="380.7" x="468.3" stroke-linejoin="bevel" fill="#fff">30</text></g><text y="380.7" x="468.3">30</text></g></g></g><g stroke="none" fill="#000"><text y="362.6" text-anchor="end" x="71">60°F</text><text y="362.6" x="682">60°F</text><text y="314.8" text-anchor="end" x="71">65°F</text><text y="314.8" x="682">65°F</text><text y="266.9" text-anchor="end" x="71">70°F</text><text y="266.9" x="682">70°F</text><text y="219.1" text-anchor="end" x="71">75°F</text><text y="219.1" x="682">75°F</text><text y="171.2" text-anchor="end" x="71">80°F</text><text y="171.2" x="682">80°F</text><text y="123.3" text-anchor="end" x="71">85°F</text><text y="123.3" x="682">85°F</text><text y="75.5" text-anchor="end" x="71">90°F</text><text y="75.5" x="682">90°F</text><text y="27.6" text-anchor="end" x="71">95°F</text><text y="27.6" x="682">95°F</text></g><rect fill-opacity="0.000" stroke="none" y="5" x="78.3" height="5" width="199.9" fill="#fff"></rect><g><rect fill-opacity="0.004" stroke="none" y="10" x="78.3" height="355" width="199.9" fill="#fff"></rect><path stroke-width="5" stroke="#000" d="M103.3,202.5L88.3,187.5L103.3,172.5" stroke-linecap="round" stroke-linejoin="round" fill="none" stroke-opacity="0.3"></path><path stroke-width="3" stroke="#fff" d="M103.3,202.5L88.3,187.5L103.3,172.5" stroke-linecap="round" stroke-linejoin="round" fill="none" stroke-opacity="0.6"></path><line stroke-width="0.5" stroke="#000" x2="278.2" y1="10" x1="278.2" fill="none" y2="365" stroke-opacity="0.5019607843137255"></line><text y="381.3" text-anchor="middle" x="178.2">Aug</text></g><rect fill-opacity="0.000" stroke="none" y="5" x="474.8" height="5" width="199.9" fill="#fff"></rect><g><rect fill-opacity="0.004" stroke="none" y="10" x="474.8" height="355" width="199.9" fill="#fff"></rect><path stroke-width="5" stroke="#000" d="M649.7,202.5L664.7,187.5L649.7,172.5" stroke-linecap="round" stroke-linejoin="round" fill="none" stroke-opacity="0.3"></path><path stroke-width="3" stroke="#fff" d="M649.7,202.5L664.7,187.5L649.7,172.5" stroke-linecap="round" stroke-linejoin="round" fill="none" stroke-opacity="0.6"></path><line stroke-width="0.5" stroke="#000" x2="474.8" y1="10" x1="474.8" fill="none" y2="365" stroke-opacity="0.5019607843137255"></line><text y="381.3" text-anchor="middle" x="574.8">Oct</text></g><g font-family="sans-serif" text-decoration="none" font-style="normal" font-size="10" font-weight="normal"><rect rx="3" stroke="none" y="164.9" x="273.5" ry="3" height="10.4" width="16" fill="#fff"></rect><text font-family="sans-serif" stroke="none" opacity="1" y="173.5" text-decoration="none" text-anchor="middle" x="281.5" font-style="normal" font-size="10" fill="#592f93" font-weight="normal">80</text></g><g font-family="sans-serif" text-decoration="none" font-style="normal" font-size="10" font-weight="normal"><rect rx="3" stroke="none" y="180.6" x="365.2" ry="3" height="10.4" width="16" fill="#fff"></rect><text font-family="sans-serif" stroke="none" opacity="1" y="189.1" text-decoration="none" text-anchor="middle" x="373.2" font-style="normal" font-size="10" fill="#592f93" font-weight="normal">78</text></g><g font-family="sans-serif" text-decoration="none" font-style="normal" font-size="10" font-weight="normal"><rect rx="3" stroke="none" y="211.5" x="463.5" ry="3" height="10.4" width="16" fill="#fff"></rect><text font-family="sans-serif" stroke="none" opacity="1" y="220" text-decoration="none" text-anchor="middle" x="471.5" font-style="normal" font-size="10" fill="#592f93" font-weight="normal">75</text></g><g font-family="sans-serif" text-decoration="none" font-style="normal" font-size="10" font-weight="normal"><rect rx="3" stroke="none" y="34.7" x="273.5" ry="3" height="10.4" width="16" fill="#fff"></rect><text font-family="sans-serif" stroke="none" opacity="1" y="43.2" text-decoration="none" text-anchor="middle" x="281.5" font-style="normal" font-size="10" fill="#592f93" font-weight="normal">93</text></g><g font-family="sans-serif" text-decoration="none" font-style="normal" font-size="10" font-weight="normal"><rect rx="3" stroke="none" y="30.9" x="365.2" ry="3" height="10.4" width="16" fill="#fff"></rect><text font-family="sans-serif" stroke="none" opacity="1" y="39.4" text-decoration="none" text-anchor="middle" x="373.2" font-style="normal" font-size="10" fill="#592f93" font-weight="normal">94</text></g><g font-family="sans-serif" text-decoration="none" font-style="normal" font-size="10" font-weight="normal"><rect rx="3" stroke="none" y="30.9" x="463.5" ry="3" height="10.4" width="16" fill="#fff"></rect><text font-family="sans-serif" stroke="none" opacity="1" y="39.4" text-decoration="none" text-anchor="middle" x="471.5" font-style="normal" font-size="10" fill="#592f93" font-weight="normal">94</text></g><g font-family="sans-serif" text-decoration="none" font-style="normal" font-size="10" font-weight="normal"><rect rx="3" stroke="none" y="46" x="273.5" ry="3" height="10.4" width="16" fill="#fff"></rect><text font-family="sans-serif" stroke="none" opacity="1" y="54.5" text-decoration="none" text-anchor="middle" x="281.5" font-style="normal" font-size="10" fill="#03a45e" font-weight="normal">92</text></g><g font-family="sans-serif" text-decoration="none" font-style="normal" font-size="10" font-weight="normal"><rect rx="3" stroke="none" y="44.9" x="365.2" ry="3" height="10.4" width="16" fill="#fff"></rect><text font-family="sans-serif" stroke="none" opacity="1" y="53.4" text-decoration="none" text-anchor="middle" x="373.2" font-style="normal" font-size="10" fill="#03a45e" font-weight="normal">92</text></g><g font-family="sans-serif" text-decoration="none" font-style="normal" font-size="10" font-weight="normal"><rect rx="3" stroke="none" y="47" x="463.5" ry="3" height="10.4" width="16" fill="#fff"></rect><text font-family="sans-serif" stroke="none" opacity="1" y="55.6" text-decoration="none" text-anchor="middle" x="471.5" font-style="normal" font-size="10" fill="#03a45e" font-weight="normal">92</text></g><g font-family="sans-serif" text-decoration="none" font-style="normal" font-size="10" font-weight="normal"><rect rx="3" stroke="none" y="170.1" x="365.2" ry="3" height="10.4" width="16" fill="#fff"></rect><text font-family="sans-serif" stroke="none" opacity="1" y="178.6" text-decoration="none" text-anchor="middle" x="373.2" font-style="normal" font-size="10" fill="#ee1c25" font-weight="normal">79</text></g><g font-family="sans-serif" text-decoration="none" font-style="normal" font-size="10" font-weight="normal"><rect rx="3" stroke="none" y="174.1" x="463.5" ry="3" height="10.4" width="16" fill="#fff"></rect><text font-family="sans-serif" stroke="none" opacity="1" y="182.6" text-decoration="none" text-anchor="middle" x="471.5" font-style="normal" font-size="10" fill="#ee1c25" font-weight="normal">79</text></g><g font-family="sans-serif" text-decoration="none" font-style="normal" font-size="10" font-weight="normal"><rect rx="3" stroke="none" y="60.5" x="463.5" ry="3" height="10.4" width="16" fill="#fff"></rect><text font-family="sans-serif" stroke="none" opacity="1" y="69" text-decoration="none" text-anchor="middle" x="471.5" font-style="normal" font-size="10" fill="#ee1c25" font-weight="normal">91</text></g><g font-family="sans-serif" text-decoration="none" font-style="normal" font-size="10" font-weight="normal"><rect rx="3" stroke="none" y="178.7" x="273.5" ry="3" height="10.4" width="16" fill="#fff"></rect><text font-family="sans-serif" stroke="none" opacity="1" y="187.2" text-decoration="none" text-anchor="middle" x="281.5" font-style="normal" font-size="10" fill="#0465ff" font-weight="normal">78</text></g><g font-family="sans-serif" text-decoration="none" font-style="normal" font-size="10" font-weight="normal"><rect rx="3" stroke="none" y="107.3" x="273.5" ry="3" height="10.4" width="16" fill="#fff"></rect><text font-family="sans-serif" stroke="none" opacity="1" y="115.9" text-decoration="none" text-anchor="middle" x="281.5" font-style="normal" font-size="10" fill="#0465ff" font-weight="normal">86</text></g><g font-family="sans-serif" text-decoration="none" font-style="normal" font-size="10" font-weight="normal"><rect rx="3" stroke="none" y="98.5" x="365.2" ry="3" height="10.4" width="16" fill="#fff"></rect><text font-family="sans-serif" stroke="none" opacity="1" y="107" text-decoration="none" text-anchor="middle" x="373.2" font-style="normal" font-size="10" fill="#0465ff" font-weight="normal">87</text></g><g font-family="sans-serif" text-decoration="none" font-style="normal" font-size="10" font-weight="normal"><rect rx="3" stroke="none" y="79.6" x="463.5" ry="3" height="10.4" width="16" fill="#fff"></rect><text font-family="sans-serif" stroke="none" opacity="1" y="88.1" text-decoration="none" text-anchor="middle" x="471.5" font-style="normal" font-size="10" fill="#0465ff" font-weight="normal">89</text></g><g font-family="sans-serif" text-decoration="none" font-style="normal" font-size="15" font-weight="normal"><g font-family="sans-serif" stroke="none" opacity="1" text-decoration="none" font-style="normal" font-size="15" fill="#592f93" font-weight="normal"><g opacity="0.6"><text stroke-width="4" stroke="#fff" y="283.1" x="602.6" stroke-linejoin="bevel" fill="#fff">Gurgaon</text></g><text y="283.1" x="602.6">Gurgaon</text></g></g><g font-family="sans-serif" text-decoration="none" font-style="normal" font-size="15" font-weight="normal"><g font-family="sans-serif" stroke="none" opacity="1" text-decoration="none" font-style="normal" font-size="15" fill="#03a45e" font-weight="normal"><g opacity="0.6"><text stroke-width="4" stroke="#fff" y="323" text-anchor="end" x="622.3" stroke-linejoin="bevel" fill="#fff">Delhi</text></g><text y="323" text-anchor="end" x="622.3">Delhi</text></g></g><g font-family="sans-serif" text-decoration="none" font-style="normal" font-size="15" font-weight="normal"><g font-family="sans-serif" stroke="none" opacity="1" text-decoration="none" font-style="normal" font-size="15" fill="#ee1c25" font-weight="normal"><g opacity="0.6"><text stroke-width="4" stroke="#fff" y="75.8" text-anchor="end" x="451.9" stroke-linejoin="bevel" fill="#fff">Chennai</text></g><text y="75.8" text-anchor="end" x="451.9">Chennai</text></g></g><g font-family="sans-serif" text-decoration="none" font-style="normal" font-size="15" font-weight="normal"><g font-family="sans-serif" stroke="none" opacity="1" text-decoration="none" font-style="normal" font-size="15" fill="#0465ff" font-weight="normal"><g opacity="0.6"><text stroke-width="4" stroke="#fff" y="222.8" text-anchor="end" x="668.2" stroke-linejoin="bevel" fill="#fff">Mumbai</text></g><text y="222.8" text-anchor="end" x="668.2">Mumbai</text></g></g></svg>